<svg xmlns="http://www.w3.org/2000/svg" width="40" height="40" viewBox="0 0 40 40">
  <defs>
    <style>
      .cls-1 {
        fill: #fff;
        fill-rule: evenodd;
      }
    </style>
  </defs>
  <path id="Color_Fill_1" data-name="Color Fill 1" class="cls-1" d="M22.014,14.324l2.3,0.266a10.052,10.052,0,0,1,.177-2.525,1.014,1.014,0,0,1,.266-0.665h1.55a8.412,8.412,0,0,1,.443,3.544,16.8,16.8,0,0,1,2.835.4l1.994,0.222c1.527,0.383,3.178.587,4.7,0.975,0.848,0.216,1.687.275,2.481,0.487a3.114,3.114,0,0,1,.975.222c0.4,0.287.306,1.387,0.177,1.861-0.835.521-1.993,0.341-3.19,0.62-1.471.343-3.135,0.339-4.607,0.665-0.329.073-.473-0.143-0.753-0.089-0.536.1-1.22,0.143-1.772,0.266-1,.223-2.153-0.049-3.057.266a1.238,1.238,0,0,1-.4.93c-0.079.05-.3-0.018-0.4,0.044-0.05.032-.177,0.426-0.221,0.31a0.509,0.509,0,0,0-.576-0.31,0.159,0.159,0,0,0-.089-0.044,3.024,3.024,0,0,1-.31-0.842l-2.658.133a14.436,14.436,0,0,1-.221,2.88v0.532c-0.189.851-.065,1.807-0.266,2.7l-0.665,5.36a13.552,13.552,0,0,1,2.259.487c0.807,0.226,1.627.281,2.392,0.487,0.787,0.212,1.611.1,1.639,1.063a1.556,1.556,0,0,1-.4.576c-0.4.306-1.23,0.051-1.816,0.177-0.469.1-1.03-.023-1.55,0.089a16.581,16.581,0,0,1-2.879.177l-0.044.089a9.363,9.363,0,0,0-.31,1.683H19.977a1.008,1.008,0,0,0-.133-0.487c-0.128-.349.014-0.879-0.133-1.24a2,2,0,0,0-.576-0.044,8.1,8.1,0,0,0-1.55-.089c-0.965-.21-2.137-0.013-3.1-0.221a4.528,4.528,0,0,1-1.063-.089,2.206,2.206,0,0,1-.354-0.443,1.041,1.041,0,0,1,.177-0.842,4.534,4.534,0,0,1,1.861-.487c0.616-.164,1.288-0.216,1.949-0.4a16.714,16.714,0,0,1,2.259-.487A14.1,14.1,0,0,0,19,30.272c-0.207-.9-0.114-1.84-0.31-2.7q-0.022-.421-0.044-0.842c-0.125-.558-0.04-1.2-0.177-1.816-0.1-.454-0.02-0.993-0.133-1.506a12.088,12.088,0,0,1-.177-2.348L15.5,20.925a1.178,1.178,0,0,1-.4.842,0.822,0.822,0,0,1-.4.044l-0.177.354a0.776,0.776,0,0,0-.709-0.4,8.131,8.131,0,0,0-.354-0.93c-0.493-.306-2.285-0.1-3.012-0.266C9.9,20.445,9.216,20.418,8.68,20.3c-0.278-.059-0.425.163-0.753,0.089-1.686-.384-3.59-0.34-5.272-0.753C1.881,19.45.462,19.6,0.13,19.109a2.444,2.444,0,0,1,.089-1.772C1.3,16.746,2.9,16.8,4.206,16.451c1.366-.369,2.873-0.541,4.253-0.886l1.994-.222a19.908,19.908,0,0,1,2.835-.4,11.151,11.151,0,0,1,.177-2.835A1.2,1.2,0,0,1,13.73,11.4h1.55a7.235,7.235,0,0,1,.443,3.234h0.044a12.228,12.228,0,0,1,2.259-.31,14.669,14.669,0,0,1,.044-2.924c0.132-.6-0.076-1.362.044-1.9V8.654a7.579,7.579,0,0,1,.133-1.24q0.022-.421.044-0.842c0.124-.537.165-1.185,0.31-1.683,0.345-1.187.371-2.6,1.949-2.171C22.191,5.277,22.006,10.152,22.014,14.324Z"/>
</svg>
