<svg xmlns="http://www.w3.org/2000/svg" width="40" height="40" viewBox="0 0 40 40">
  <defs>
    <style>
      .cls-1 {
        fill: #fff;
        fill-rule: evenodd;
      }
    </style>
  </defs>
  <path id="Color_Fill_1" data-name="Color Fill 1" class="cls-1" d="M20.959,8.19a6.81,6.81,0,0,0,.206,1.292L21.2,10.569a10.719,10.719,0,0,1,.069,2.039,5.916,5.916,0,0,0,1.541.034,1.666,1.666,0,0,0,.034-0.476,3.658,3.658,0,0,1,.034-1.088h-0.1a1.414,1.414,0,0,1,.171-1.122,5.036,5.036,0,0,1,.822-0.068,0.871,0.871,0,0,1-.1-0.136,17.2,17.2,0,0,0-1.781-.068l-0.034-.068h1.507a0.639,0.639,0,0,1,.308-0.034,0.96,0.96,0,0,1,.171-0.544c0.343-.209.274,0.36,0.377,0.51a9.047,9.047,0,0,0,1.781.1V9.685H24.486a0.648,0.648,0,0,1-.308.068v0.1c-0.111.028-.052-0.017-0.1,0.068H24.9a0.414,0.414,0,0,1,.137.272,2.357,2.357,0,0,1,.034.884,0.167,0.167,0,0,0-.1.034A6.379,6.379,0,0,1,25,12.642c0.921-.021,2.032.655,3.014,0.748a2.158,2.158,0,0,0,0,.306l0.411,0.034v-0.2h0.034a2.4,2.4,0,0,0,.651.17c0.438,0.135.907,0.223,1.37,0.374,1.119,0.366,2.309.578,3.459,0.952a10.934,10.934,0,0,0,2.123.578V14.715H36.13v0.918a0.1,0.1,0,0,1,.034.034,5.676,5.676,0,0,1,1.2.34c0.817,0.27,1.942.419,2.4,1.02,0.809,1.068-.793,1.738-1.507,1.937A7.147,7.147,0,0,1,36.61,19H33.185c-3.671,0-7.293-.067-11.027-0.068-0.062.08-.185,0.122-0.24,0.2a2.925,2.925,0,0,0-.171.476,9.388,9.388,0,0,0-.445.918,1.568,1.568,0,0,0,.1.748H21.267c0.016,2.087-.36,4-0.377,6.05a33.52,33.52,0,0,0,3.322,1.665,3.613,3.613,0,0,1,1.336.748,1.852,1.852,0,0,1,0,1.9,1.7,1.7,0,0,1-.685.476,11.863,11.863,0,0,1-2.945.034H21.164a1.061,1.061,0,0,0-.856-0.238,4.415,4.415,0,0,0-.24.646L20,33H19.932a1.872,1.872,0,0,0-.343-1.088c-0.307-.226-0.587.172-0.822,0.238l-1.644.034c-1.668,0-2.671.144-3.014-1.224a1.462,1.462,0,0,1,1.027-1.7c0.828-.427,1.718-0.886,2.569-1.257,0.36-.157.668-0.307,0.993-0.476l0.274-.1a1.255,1.255,0,0,0,.069-0.68,11.942,11.942,0,0,1-.137-1.767c-0.221-.983-0.038-2.256-0.24-3.161q-0.017-.646-0.034-1.291a6.847,6.847,0,0,0-.308-0.612A2.266,2.266,0,0,0,17.877,19a2.072,2.072,0,0,0-.89-0.068H14.76a3.124,3.124,0,0,1-1.1.034H11.4c-0.218,0-.561-0.051-0.719-0.034-0.571.06-1.29,0.034-1.918,0.034H8.014A6.878,6.878,0,0,1,6.747,19h-2.6c-1.627,0-2.838.076-3.767-.612A1.023,1.023,0,0,1,.24,16.958a7.871,7.871,0,0,1,2.568-1.02,6.144,6.144,0,0,1,1.062-.306A2.446,2.446,0,0,1,3.9,14.715V15.6a3.291,3.291,0,0,0,.719-0.2c0.546-.179,1.1-0.275,1.61-0.442,0.638-.208,1.244-0.268,1.884-0.476,1.042-.338,2.169-0.663,3.253-0.918,0,0.133-.017.153,0.069,0.2a1.079,1.079,0,0,0,.479-0.136,1.52,1.52,0,0,0,0-.238,2.29,2.29,0,0,0,.616-0.17c0.438-.14.831-0.165,1.267-0.306a3.861,3.861,0,0,1,1.13-.272,5.83,5.83,0,0,1,.034-1.563h-0.1c0-.347.012-0.721,0.034-1.02a1.618,1.618,0,0,1,.959-0.136V9.855h-0.1v-0.1A18.2,18.2,0,0,1,13.9,9.617c0.629,0,1.267-.031,1.849-0.034l0.069-.51,0.1-.034a0.278,0.278,0,0,1,.24,0c0.091,0.331-.049.557,0.411,0.544a9.188,9.188,0,0,0,1.507.068V9.685H16.575c-0.079.051-.233,0.048-0.308,0.1-0.043.04-.112,0.073-0.069,0.1a3.625,3.625,0,0,0,.856.068,3.017,3.017,0,0,1,.1,1.122,0.167,0.167,0,0,0-.1.034,4.873,4.873,0,0,1,.034,1.5,5.916,5.916,0,0,0,1.541.034,4.874,4.874,0,0,0,.034-1.291,8.226,8.226,0,0,0,.069-1.427c0.2-.829.057-1.827,0.582-2.243a1.209,1.209,0,0,1-.1-0.1,0.1,0.1,0,0,0,.034-0.034,0.122,0.122,0,0,0,.137,0l0.24-.306a0.3,0.3,0,0,1-.1-0.1h0.034A0.84,0.84,0,0,1,20.137,7L20.1,7.068a0.2,0.2,0,0,0,.171-0.034,1.287,1.287,0,0,0,.137.1c-0.033.054-.125,0.1-0.069,0.136,0.066,0.105.145,0.189,0.205,0.306a0.2,0.2,0,0,1,.137,0h0.034A0.632,0.632,0,0,0,20.959,8.19Z"/>
</svg>
