<svg xmlns="http://www.w3.org/2000/svg" width="40" height="40" viewBox="0 0 40 40">
  <defs>
    <style>
      .cls-1 {
        fill: #fff;
        fill-rule: evenodd;
      }
    </style>
  </defs>
  <path id="Color_Fill_1" data-name="Color Fill 1" class="cls-1" d="M20.038,6.636c1.053,0.129.749,0.806,0.945,1.72a17.455,17.455,0,0,1,.151,3.1c0.084-.014.1-0.04,0.151,0a1.5,1.5,0,0,1,.038.486,0.547,0.547,0,0,1-.189-0.037v0.3a2.671,2.671,0,0,0,.718.037,6.463,6.463,0,0,0,1.474.075c-0.021-.716-0.178-2.193.491-2.206a0.5,0.5,0,0,1,.265-0.037l0.038-.262a4.774,4.774,0,0,1-2.155-.187,4.732,4.732,0,0,0,.907-0.075,4.961,4.961,0,0,1,1.285.075,0.763,0.763,0,0,1,.492-0.636,0.657,0.657,0,0,0,.189.224l0.151,0.411h0.34a6.475,6.475,0,0,1,1.89.037,5.053,5.053,0,0,0-.983.15,5.287,5.287,0,0,1-1.21,0V9.889a0.171,0.171,0,0,1,0,.187,2.509,2.509,0,0,1,.6.075c0.036,0.113.12,0.194,0.151,0.3a8.131,8.131,0,0,1,.038,1.982,7.2,7.2,0,0,1,1.437.15c0.4,0.088.814,0.034,1.172,0.112h0.416c0.718,0.158,1.587.105,2.306,0.262l1.172,0.075c1.359,0.3,2.914.153,4.272,0.449l0.718,0.037c1.25,0.282,2.706.2,2.684,1.72-0.117.159-.123,0.394-0.227,0.561a2.887,2.887,0,0,1-.718.748c-1.2.838-2.669,0.761-4.234,1.159-2.463.626-5.342,0.813-7.9,1.458l-0.87.112-3.024.71a4.579,4.579,0,0,0-.907.6,3.776,3.776,0,0,0-.983,1.384v1.758l-0.076,3.253a11.57,11.57,0,0,0,2.079,1.01c0.543,0.236,1.123.55,1.663,0.785a3.524,3.524,0,0,1,1.512.823,1.119,1.119,0,0,1-.113,1.421,4.425,4.425,0,0,1-2.8.935v0.112a13.607,13.607,0,0,0-2,.374,0.37,0.37,0,0,1-.265-0.075,5.386,5.386,0,0,1-.87.187,4.213,4.213,0,0,0-.227.449H20V32.963a0.666,0.666,0,0,0-.454-0.449,4.35,4.35,0,0,0-1.323-.15c-0.445-.115-1.018-0.11-1.474-0.262a3.647,3.647,0,0,0-.34-0.187l-0.643-.075a5.281,5.281,0,0,1-1.588-.561,1.085,1.085,0,0,1-.681-1.2c0.2-.773.869-0.939,1.55-1.234,0.883-.382,1.8-0.849,2.684-1.234a2.649,2.649,0,0,0,1.172-.6,6.46,6.46,0,0,0,0-1.758V22.006a3.755,3.755,0,0,0-1.059-1.458c-1-.936-2.978-0.95-4.537-1.346-2.606-.663-5.339-0.786-7.9-1.458-0.372-.1-0.686-0.055-1.059-0.15C2.69,17.171,1.079,17.065.265,15.835A4.211,4.211,0,0,1,0,14.788a2.1,2.1,0,0,0,.265-0.449,2.231,2.231,0,0,1,.794-0.524,8.208,8.208,0,0,1,1.323-.224c1.05-.235,2.3-0.141,3.365-0.374l0.794-.037c0.718-.157,1.587-0.105,2.306-0.262l0.794-.037c0.726-.159,1.592-0.06,2.344-0.224a12.062,12.062,0,0,1,2.231-.224,10.574,10.574,0,0,1,.113-2.206,0.516,0.516,0,0,1,.378-0.112,0.413,0.413,0,0,1,.227-0.037V9.814c-0.526.012-1.851,0.1-2.117-.187h0.34a5.964,5.964,0,0,1,1.853,0,0.717,0.717,0,0,1,.454-0.636,1.507,1.507,0,0,1,.34.636,7.294,7.294,0,0,1,2.231.037,5.738,5.738,0,0,0-.983.15,5.134,5.134,0,0,1-1.172,0,0.746,0.746,0,0,1-.038.262h0.34a0.506,0.506,0,0,0,.265.037,0.672,0.672,0,0,1,.113.187,5.864,5.864,0,0,1,.113,2.019,11.971,11.971,0,0,0,2.231-.112V11.722c-0.142,0-.132-0.068-0.113-0.3H18.9a13.6,13.6,0,0,1,.113-2.73c0.11-.507-0.027-0.974.113-1.421a1.022,1.022,0,0,1,.491-0.561l0.34-.075V6H20Z"/>
</svg>
