<svg xmlns="http://www.w3.org/2000/svg" width="40" height="40" viewBox="0 0 40 40">
  <defs>
    <style>
      .cls-1 {
        fill: #fff;
        fill-rule: evenodd;
      }
    </style>
  </defs>
  <path id="Color_Fill_1" data-name="Color Fill 1" class="cls-1" d="M21.326,2.35V1.175h0.11V2.35a9.285,9.285,0,0,1,.055,1.231c0.221,0.652.055,1.46,0.221,2.238a22.5,22.5,0,0,1,.276,3.973h0.442V9.848h0.055l0.221,1.623V14.1l15.138,1.343c-0.035-1.251-.026-3.76.939-3.861,0.816,1.275.717,2.454,0.718,4.532,0,1.593,0,3.449,0,5.2a7.807,7.807,0,0,1-.111,1.846,2.273,2.273,0,0,0-.166.9,1.788,1.788,0,0,0,.773.224v0.559a5.57,5.57,0,0,0-1.215.672c-0.117.208,0.032,0.267-.166,0.392a7.234,7.234,0,0,0-.387-1.455,12.57,12.57,0,0,1-.387-3.245H37.79a3.593,3.593,0,0,1-1.216.28c-0.921.263-1.952,0.347-2.928,0.616L25.8,23.781a30.836,30.836,0,0,0-3.481.727c-1.5,2.482-1,5.973-1.657,9.288a8.811,8.811,0,0,1,2.044.5c1.1,0.335,2.211.462,3.26,0.783,0.454,0.139,1.647.208,1.823,0.56a5.04,5.04,0,0,1,0,2.182,0.835,0.835,0,0,1-.608.168,10.18,10.18,0,0,1-2.044.168c-0.611.135-1.314,0.019-1.989,0.168a17.541,17.541,0,0,1-2.983.28v0.224A1.969,1.969,0,0,0,20,39V38.944a0.746,0.746,0,0,1-.166-0.336l-7.459-.615a5.664,5.664,0,0,1-.221-2.35,11.262,11.262,0,0,1,2.376-.672c1.117-.343,2.3-0.5,3.481-0.839a7.088,7.088,0,0,1,1.326-.336,10.406,10.406,0,0,0-.221-2.014c-0.166-.758-0.069-1.544-0.221-2.238L18.84,28.369a20.125,20.125,0,0,0-.442-2.238c-0.2-.544-0.258-1.415-0.773-1.623a3.234,3.234,0,0,0-.995-0.224c-0.769-.211-1.6-0.277-2.431-0.5-2.7-.74-5.638-1.056-8.343-1.791-0.831-.225-1.656-0.294-2.431-0.5a3.878,3.878,0,0,1-1.1-.224,4.133,4.133,0,0,1-.055-1.511H2.21V19.7H2.155v2.8a5.643,5.643,0,0,0-.221,1.287L1.381,25.907H1.326V25.851c-0.066-.089-0.034-0.3-0.11-0.392L0.994,25.4c-0.449-.3-1-0.345-0.994-1.119,0.333-.023.49-0.137,0.829-0.168a6.362,6.362,0,0,0-.221-1.063c-0.093-.381-0.034-0.88-0.11-1.231V19.584c0-1.633,0-2.953,0-4.532,0-1.1.047-3.136,0.773-3.413a0.285,0.285,0,0,1,.276,0c0.6,1.057.6,2.105,0.608,3.8a11.275,11.275,0,0,0,2.431-.224C5.421,15.033,6.3,15.167,7.072,15l3.149-.224c0.77-.172,1.651-0.037,2.486-0.224l4.586-.448a20.961,20.961,0,0,1,.276-4.308h0.5c-0.02-3.061.483-5.7,0.5-8.617h0.11V2.406h0.111a0.639,0.639,0,0,1,.166-0.112c-0.015-.769.087-1.985,0.663-2.182a1.011,1.011,0,0,1,.884,0,3.112,3.112,0,0,1,.387.5c0.2,0.527.07,1.261,0.276,1.735h0.166Z"/>
</svg>
