<svg xmlns="http://www.w3.org/2000/svg" width="40" height="40" viewBox="0 0 40 40">
  <defs>
    <style>
      .cls-1 {
        fill: #fff;
        fill-rule: evenodd;
      }
    </style>
  </defs>
  <path id="Color_Fill_1" data-name="Color Fill 1" class="cls-1" d="M21.076,3.135h0.386L21.407,5.6a23.077,23.077,0,0,1,.552,4.873h0.5c0.139,1.231.263,2.8,0.276,4.216L37.793,16c-0.031-1.129.016-3.441,0.717-3.723a0.481,0.481,0,0,1,.276-0.055c0.728,1.136.661,2.445,0.662,4.326,0,2.2.308,6.1-.331,7.885,0.387,0.026.827,0.09,0.828,0.548a0.278,0.278,0,0,1,.055.164,5.077,5.077,0,0,0-1.269.712,3.9,3.9,0,0,1-.11.383V26.187a4.71,4.71,0,0,1-.331-1.259,11.546,11.546,0,0,1-.5-3.285H37.738a5.021,5.021,0,0,1-1.324.274c-1.106.3-2.316,0.4-3.476,0.712-1.472.395-2.825,0.538-4.3,0.931l-1.379.219c-0.846.235-1.8,0.3-2.7,0.548a10.357,10.357,0,0,1-2.152.438,8.024,8.024,0,0,0-1.1,2.573l-0.276,3.34a16.679,16.679,0,0,0-.331,3.231h0.055v0.055a9.454,9.454,0,0,1,2.041.493c1.1,0.31,2.209.451,3.255,0.767,0.5,0.152,1.43.114,1.71,0.493a4.026,4.026,0,0,1-.11,2.3l-7.5.657v0.274h-0.11c-0.085.039-.008,0.007-0.165,0V38.672L16.5,38.343c-0.674-.146-1.376-0.032-1.986-0.164A16.916,16.916,0,0,1,12.3,37.96a4.315,4.315,0,0,1-.055-2.3,4.611,4.611,0,0,1,1.49-.383c1.251-.375,2.658-0.61,3.917-0.986a5.929,5.929,0,0,0,1.6-.383,0.72,0.72,0,0,0,.055-0.383c-0.279-.47-0.079-1.621-0.221-2.245-0.355-1.562-.217-3.524-0.717-4.873-0.214-.577-0.25-1.386-0.828-1.588a5.267,5.267,0,0,0-1.324-.274c-0.957-.256-1.97-0.332-2.979-0.6-2.528-.677-5.006-0.9-7.5-1.588-1.181-.325-2.437-0.3-3.531-0.712L2.1,23.395c-0.234.95-.5,1.925-0.717,2.847H1.324C1.183,25.323.014,25.684,0,24.709c0.3-.138.8-0.107,0.828-0.547-0.358-.5-0.276-1.979-0.276-2.847,0-2.331,0-4.094,0-6.3,0-1.027.047-2.736,0.938-2.793C2.17,13.274,2.2,14.3,2.207,16l15.062-1.314a20.6,20.6,0,0,1,.276-4.216h0.5a19.5,19.5,0,0,1,.5-4.545c0.183-.8-0.041-2.013.055-2.792h0.331c0-.661.1-1.791,0.607-1.971a0.97,0.97,0,0,1,.938-0.055,3.11,3.11,0,0,1,.441.6Z"/>
</svg>
