<svg xmlns="http://www.w3.org/2000/svg" width="40" height="40" viewBox="0 0 40 40">
  <defs>
    <style>
      .cls-1 {
        fill: #fff;
        fill-rule: evenodd;
      }
    </style>
  </defs>
  <path id="Color_Fill_1" data-name="Color Fill 1" class="cls-1" d="M20,5.122a2.192,2.192,0,0,1,.328.081,0.992,0.992,0,0,0,.329.405c0.113,0.168.048,0.419,0.164,0.567,0.058,0.036.23,0.044,0.287,0.081H20.821l0.246,2.066V9.253a7.53,7.53,0,0,1,.041,1.377v2.714l1.807,0.324a15.2,15.2,0,0,1,.123-1.823,1.2,1.2,0,0,1,.37-0.04V11.643a3.538,3.538,0,0,1-1.684-.162h0.452a3.156,3.156,0,0,1,1.314,0V11.359a0.636,0.636,0,0,1,.37-0.081c0.049,0.225.119,0.257,0.411,0.243a3.323,3.323,0,0,1,1.4.122v0.04H25.38a2.85,2.85,0,0,1-1.4-.04v0.2h0.329a1.972,1.972,0,0,1,.041.567,8.793,8.793,0,0,1-.041,1.58l2.628,0.527A8.287,8.287,0,0,1,27.1,12.7a0.5,0.5,0,0,0,.329,0,0.271,0.271,0,0,0,.041-0.162,3.851,3.851,0,0,1-1.643-.162,0.114,0.114,0,0,1-.041-0.04h1.355a0.587,0.587,0,0,0,.37.04,0.389,0.389,0,0,1,.329-0.2,0.351,0.351,0,0,1,.123.162,0.2,0.2,0,0,1,.041.122,4.289,4.289,0,0,1,1.766.2,11.709,11.709,0,0,1-1.725-.081v0.2h0.288L28.378,12.9a1.649,1.649,0,0,1-.041.851c0,0.278-.032.735-0.041,1.094a5.524,5.524,0,0,1,1.355.284c0.652,0.181,1.322.236,1.93,0.4,0.418,0.116.775,0.087,1.191,0.2,1.546,0.432,3.26.626,4.8,1.053,0.925,0.256,2.436.239,2.423,1.377a2.781,2.781,0,0,1-1.273,1.013l-0.78.041c-0.957.2-2.12,0-3.08,0.2h-0.78c-1.213.259-2.649-.014-3.86,0.243h-0.78c-0.721.154-1.62,0.009-2.341,0.162h-0.78c-0.46.1-1.009-.028-1.52,0.081-0.474.1-1.038-.03-1.561,0.081a10.388,10.388,0,0,1-1.971.081c-0.329.562-.168,2.876-0.164,3.807a1.241,1.241,0,0,1,.534.04H21.109c0.006,1.9-.089,3.771-0.123,5.589h0.041v0.04a6.711,6.711,0,0,1,1.478.2c0.585,0.135,1.184.118,1.725,0.243,0.606,0.14,1.248.051,1.807,0.243a9.365,9.365,0,0,1,0,2.268L26,32.582H25.955V32.5a2.375,2.375,0,0,1-.041-0.324h-0.37a6.25,6.25,0,0,1-1.314.122c-0.668.143-1.421,0.05-2.136,0.2a2.127,2.127,0,0,1-.9.081c-0.161-.05-0.3-0.192-0.493-0.243-0.025.144-.035,0.031-0.082,0.122a0.577,0.577,0,0,1-.041.486c0.186,0.013.172-.005,0.205,0.162a0.894,0.894,0,0,1-.288.041,2.632,2.632,0,0,0-.328,0v0.284h0.246v0.041a0.145,0.145,0,0,0-.041.081,0.65,0.65,0,0,0-.205-0.04,4.269,4.269,0,0,1,0,.445c-0.1-.013-0.023.035-0.288,0.041a0.442,0.442,0,0,0-.082-0.121,1.154,1.154,0,0,0,.041-0.364,0.6,0.6,0,0,0-.205.04l-0.041-.121h0.246V33.149c-0.276,0-.311,0-0.575,0a0.566,0.566,0,0,1-.041-0.162h0.041V32.947h0.123a1.647,1.647,0,0,1,0-.526c-0.121,0-.024-0.014-0.164-0.081a2.215,2.215,0,0,1-1.643.162c-1.142-.109-2.305-0.3-3.491-0.324v0.081a1.29,1.29,0,0,0-.041.243L14,32.582H13.963a0.139,0.139,0,0,0-.041-0.081c0.092-.522-0.24-1.851.082-2.268l4.969-.729a0.347,0.347,0,0,0,.041-0.2,4.912,4.912,0,0,1-.041-1.175,12.867,12.867,0,0,1-.041-1.7c-0.043-.764-0.043-1.682-0.041-2.511a1.241,1.241,0,0,1-.534-0.04h0.534c0.008-.994.165-3.159-0.164-3.807a9.773,9.773,0,0,1-1.971-.081c-0.523-.111-1.087.02-1.561-0.081-0.511-.109-1.06.017-1.52-0.081H12.9c-0.72-.155-1.62-0.008-2.341-0.162H9.774c-1.213-.261-2.647.016-3.86-0.243H5.133c-0.972-.209-2.149.006-3.121-0.2l-0.739-.041A2.86,2.86,0,0,1,0,18.2V17.758a0.517,0.517,0,0,0,.164-0.243,2.639,2.639,0,0,1,.78-0.405A19.543,19.543,0,0,1,3,16.665c1.734-.482,3.645-0.7,5.38-1.175C9.167,15.273,9.97,15.2,10.719,15a3.248,3.248,0,0,0,.944-0.2,0.433,0.433,0,0,0,.041-0.243,8.687,8.687,0,0,1-.123-1.7,0.637,0.637,0,0,1,.37-0.081v-0.2a3.107,3.107,0,0,1-1.684.04h0.082a3.734,3.734,0,0,1,1.643-.162l0.041-.2a0.478,0.478,0,0,1,.287-0.081c0.055,0.087.113,0.145,0.164,0.243a10.137,10.137,0,0,1,1.725-.081v0.04H14.168a3.572,3.572,0,0,1-1.643.162V12.7a0.652,0.652,0,0,0,.205.041,0.212,0.212,0,0,1,.123-0.041,0.42,0.42,0,0,1,.082.243,5.622,5.622,0,0,1,.123,1.58l2.628-.527c0-.767-0.051-1.489-0.041-2.106a1.2,1.2,0,0,1,.37-0.04v-0.2a13.687,13.687,0,0,1-1.684.04v-0.04h0.041a4.712,4.712,0,0,1,1.684-.122l0.041-.2a1.046,1.046,0,0,1,.328-0.04,0.425,0.425,0,0,1,.082.2c0.583,0,1.177,0,1.766,0v0.04H18.234a3.5,3.5,0,0,1-1.643.122V11.8H16.92l0.041,0.121a5.791,5.791,0,0,1,.082,1.742,14.981,14.981,0,0,0,1.848-.324V10.589a7.762,7.762,0,0,1,.041-1.418V8.24l0.246-1.985a0.348,0.348,0,0,1-.205-0.041c0.448-.028.244-0.52,0.452-0.77a0.12,0.12,0,0,1,.164-0.04C19.768,5.218,19.827,5.181,20,5V5.122Z"/>
</svg>
