<svg xmlns="http://www.w3.org/2000/svg" width="40" height="40" viewBox="0 0 40 40">
  <defs>
    <style>
      .cls-1 {
        fill: #fff;
        fill-rule: evenodd;
      }
    </style>
  </defs>
  <path id="Color_Fill_1" data-name="Color Fill 1" class="cls-1" d="M21.693,10.127a1.85,1.85,0,0,0,.159.581H21.693a1.816,1.816,0,0,0,.159.528,0.27,0.27,0,0,1-.159.053v1.584a3.141,3.141,0,0,1,.529.37h1.005a0.679,0.679,0,0,1,.582-0.211,2.094,2.094,0,0,1,.37.317L26.243,13.4V12.239h0.106V13.4l0.688,0.053V12.239h0.106v1.214l5.185,0.211h1.111a21.024,21.024,0,0,1,3.545.106c1.172,0.255,2.078-.324,2.7.528a2.11,2.11,0,0,1-.053,2.165c-0.976,1.751-2.551,1.828-4.6,2.481a6.482,6.482,0,0,1-2.116.528c0,0.167.09,0.071-.053,0.158A5.077,5.077,0,0,1,31.27,20l-0.159-.053a12.616,12.616,0,0,1-2.222.634c-1.322.431-2.806,0.729-4.127,1.162a10.071,10.071,0,0,0-1.9.475A5.258,5.258,0,0,0,21.323,24.7l-0.212,3.168a16.421,16.421,0,0,0-.37,3.273,6.1,6.1,0,0,1,1.429.475c0.958,0.356,1.935.608,2.857,0.95a3.394,3.394,0,0,1,1.64.739,1.885,1.885,0,0,1,.265,1.109,1.442,1.442,0,0,1-.688.9c-0.739.507-3.7,1.264-4.762,0.845-0.614-.241-0.7-1-1.164-1.373a0.15,0.15,0,0,0-.053-0.053V35.1a7.126,7.126,0,0,0,.053,1.584A0.638,0.638,0,0,0,20,37H19.947V36.472c-0.2-.339-0.031-1.5-0.317-1.689v0.053c-0.45.485-.573,1.122-1.27,1.373a4.011,4.011,0,0,1-1.9-.106c-1.383-.352-3.032-0.33-3.386-1.69a1.433,1.433,0,0,1,.476-1.32,8.753,8.753,0,0,1,2.063-.739c0.766-.281,1.578-0.5,2.381-0.792a6.062,6.062,0,0,1,1.27-.422,17.662,17.662,0,0,0-.37-3.115L18.677,24.8a4.721,4.721,0,0,0-1.534-2.587,10.111,10.111,0,0,0-1.9-.475c-1.651-.531-3.481-0.895-5.132-1.425a11.786,11.786,0,0,1-1.9-.528,0.255,0.255,0,0,1-.053.158,6.566,6.566,0,0,0-1.005-.264c-1.9-.811-5.265-1.068-6.4-2.587-0.965-1.288-1.269-3.377,1.217-3.326V11.658H2.063V13.77c3.611,0.013,7.259-.3,10.794-0.317a3.172,3.172,0,0,1,.053-1.214c0.024,0.357.052,0.787,0.053,1.214l0.688-.053V12.239h0.106V13.4l2.063-.053a1.969,1.969,0,0,1,.37-0.317c0.347-.09,1.061.489,1.587,0.158,0.554-.158.559-0.582,0.529-1.32a1.9,1.9,0,0,1-.053-1.162c-0.172-.044-0.081.026-0.159-0.106a0.429,0.429,0,0,0,.159-0.475c-0.172-.044-0.081.026-0.159-0.106A0.483,0.483,0,0,0,18.307,9.6,0.938,0.938,0,0,1,18.1,9.494a0.533,0.533,0,0,0,.212-0.475A0.362,0.362,0,0,1,18.1,8.913a0.533,0.533,0,0,0,.212-0.475A0.362,0.362,0,0,1,18.1,8.332a1.836,1.836,0,0,0,.212-1.056c0.175-.79.345-1.625,0.529-2.323H17.143c-0.506-.3-1.94.156-2.328-0.264,0.465-.153,1.033.013,1.587-0.106a14.448,14.448,0,0,1,2.645-.053c0.125-.306.772-1.571,1.005-1.478a16.108,16.108,0,0,1,.9,1.478h1.005a12.059,12.059,0,0,1,2.381.106,1.1,1.1,0,0,1,.794.158H25.027a2.571,2.571,0,0,1-.635.053,11.489,11.489,0,0,1-3.28.053V4.953c0.636,0.727.255,2.6,0.794,3.432-0.207.057-.2,0.06-0.212,0.317a0.852,0.852,0,0,1,.212.264c-0.207.057-.2,0.06-0.212,0.317a0.575,0.575,0,0,1,.212.264c-0.231.042-.208,0.059-0.212,0.317a0.575,0.575,0,0,1,.212.264H21.693Z"/>
</svg>
