<svg xmlns="http://www.w3.org/2000/svg" width="40" height="40" viewBox="0 0 40 40">
  <defs>
    <style>
      .cls-1 {
        fill: #fff;
        fill-rule: evenodd;
      }
    </style>
  </defs>
  <path id="Color_Fill_1" data-name="Color Fill 1" class="cls-1" d="M19.152,39.384L18.884,38.2a3.591,3.591,0,0,0-1.071.484c-0.429.211-.821,0.317-1.25,0.528A6.329,6.329,0,0,1,14.777,40V39.912a4.233,4.233,0,0,1,.179-2.2,4.562,4.562,0,0,1,1.384-1.8l0.58-.616a9.857,9.857,0,0,0,1.339-1.232v-0.7a14.548,14.548,0,0,1-.089-2.376,37.883,37.883,0,0,1-.089-5.28c0-.965.171-2.376-0.536-2.64a1.07,1.07,0,0,0-.8.264c-0.8.354-1.594,0.674-2.366,1.012-2.186.957-4.168,1.742-6.384,2.684a9.995,9.995,0,0,1-2.768,1.1V28.031a3.553,3.553,0,0,1-.089-1.012,7.4,7.4,0,0,1,.357-3.784c0.143-.29.607-0.514,0.714-0.748V19.318H6.295v1.32a6.549,6.549,0,0,1,.045,1.672H6.384a5.474,5.474,0,0,1,.759-0.748c0.662-.653,1.347-1.283,2.009-1.936l6.027-5.941a20.1,20.1,0,0,1,2.232-1.848,4.632,4.632,0,0,0,.8-0.572V9.593A18.685,18.685,0,0,0,18.3,7.349c0.132-.589-0.008-1.268.134-1.892,0.272-1.194.318-2.487,0.625-3.564,0.213-.748.2-1.772,1.027-1.892a2.422,2.422,0,0,1,.536.484,14.525,14.525,0,0,1,.67,2.992,37.214,37.214,0,0,1,.536,7.789,25.1,25.1,0,0,1,4.241,3.652c1.421,1.4,2.865,2.78,4.286,4.18,0.945,0.931,1.912,1.841,2.857,2.772a8.975,8.975,0,0,1,1.429,1.54c0.441,0.7.313,2.069,0.313,3.168-0.062.009,0.018-.036-0.045-0.044-0.035-.085-0.045.088-0.045,0.088a2.97,2.97,0,0,1-.045,1.5H34.554a4.716,4.716,0,0,0-.893-0.352c-0.563-.244-1.147-0.491-1.741-0.748-1.9-.82-3.648-1.563-5.536-2.376-0.774-.333-1.56-0.664-2.366-1.012a4.873,4.873,0,0,0-1.518-.616c-0.758.82-.536,2.017-0.536,3.52,0,2.59-.177,5.036-0.179,7.525,0.524,0.341.845,0.952,1.339,1.32,1.25,0.931,2.593,2.315,2.143,4.621H25.134l-3.973-1.848a1.861,1.861,0,0,1-.67,1.54C19.926,40.214,19.449,39.462,19.152,39.384Z"/>
</svg>
