<svg xmlns="http://www.w3.org/2000/svg" width="40" height="40" viewBox="0 0 40 40">
  <defs>
    <style>
      .cls-1 {
        fill: #fff;
        fill-rule: evenodd;
      }
    </style>
  </defs>
  <path id="Color_Fill_1" data-name="Color Fill 1" class="cls-1" d="M19.91,2h0.226V2.358a2.788,2.788,0,0,1,.724.76,0.868,0.868,0,0,0,.271.447,3.807,3.807,0,0,1,1.131-.089,8.14,8.14,0,0,1,2.986.358,22.921,22.921,0,0,1-4.027.224V4.146a5.621,5.621,0,0,1,.362,1.117l0.045,0.626c0.067,0.226.247,0.459,0.317,0.715l0.271,2.727h0.5V9.375H22.76a10.522,10.522,0,0,1,.226,1.028,5.13,5.13,0,0,0,.86.715l0.769,0.089c0.793,0.2,1.759.256,2.579,0.447l1,0.089c1.037,0.242,2.166.2,3.258,0.447a15.289,15.289,0,0,0,2.489.358V10.27h0.136v2.324a5.433,5.433,0,0,1,1.312.179c0.79,0.2,1.614.126,2.353,0.313a5.763,5.763,0,0,1,1.674.313c0.782,0.531.685,2.154,0.181,2.905a1.4,1.4,0,0,1-.679.581,1.507,1.507,0,0,1-.453.536c-1.053.69-2.722,0.7-4.118,1.073-2.574.681-5.444,0.913-8.1,1.654-1.013.283-2.069,0.348-3.032,0.626a2.74,2.74,0,0,0-1.448.492c-0.4.518-.1,1.626-0.271,2.369s-0.048,1.546-.226,2.324c-0.123.535-.046,1.153-0.181,1.743a9.677,9.677,0,0,0-.226,2.1c1.465,0.637,3,1.338,4.434,1.967a2.326,2.326,0,0,1,1.538,1.252,1.3,1.3,0,0,1-1,1.52,10.248,10.248,0,0,1-5.023.581l-0.407-.983H20.362v0.045a3.7,3.7,0,0,0-.09.939c-0.134.59-.058,1.407-0.226,1.877H20V36.955c-0.263-.417-0.091-2.149-0.317-2.816a0.161,0.161,0,0,0-.045.089,2.016,2.016,0,0,1-.543.894,5.542,5.542,0,0,1-2.036.045l-1.312-.089c-0.961-.248-2.9-0.713-2.534-2.056a1.647,1.647,0,0,1,.95-0.939,28.759,28.759,0,0,1,3.529-1.654,7.213,7.213,0,0,0,1.493-.626V29.312A6.233,6.233,0,0,1,19,27.7c-0.344-1.439-.145-3.11-0.5-4.559-0.168-.692.163-1.605-0.317-1.967a3.972,3.972,0,0,0-1.357-.4c-0.964-.272-2.016-0.35-3.032-0.626-1.368-.372-2.893-0.518-4.253-0.894a11.454,11.454,0,0,1-2.081-.447,5.023,5.023,0,0,1-1.538-.268C5.071,18.3,4.153,18.235,3.348,18c-1.52-.439-2.224-0.736-2.941-1.877A2.543,2.543,0,0,1,.226,13.89c0.535-.994,2.148-0.683,3.394-0.983,0.642-.155,1.348-0.1,2.036-0.268,0.521-.125,1.1-0.086,1.674-0.223,1.859-.447,3.943-0.4,5.792-0.849,1.182-.29,3.869-0.134,3.937-1.386,0.15-.222.106-0.6,0.271-0.8a1.11,1.11,0,0,1,.5-0.045L18.1,6.6c0.073-.256.246-0.489,0.317-0.715l0.045-.626a9.471,9.471,0,0,0,.362-1.252,12.91,12.91,0,0,1-3.213-.045A2.705,2.705,0,0,1,14.8,3.833,14.191,14.191,0,0,1,19,3.564C19.185,2.888,19.894,2.7,19.91,2Z"/>
</svg>
