<svg xmlns="http://www.w3.org/2000/svg" width="40" height="40" viewBox="0 0 40 40">
  <defs>
    <style>
      .cls-1 {
        fill: #fff;
        fill-rule: evenodd;
      }
    </style>
  </defs>
  <path id="Color_Fill_1" data-name="Color Fill 1" class="cls-1" d="M22.288,8.153H22.016V8.245a3.619,3.619,0,0,1,.362,1.148H22.288c-0.075.051-.1-0.044-0.181,0.092a0.882,0.882,0,0,0,.544.092,2.7,2.7,0,0,0,1,1.745,12.749,12.749,0,0,0,2.627.459c0.889,0.215,1.958.246,2.854,0.459l0.68,0.046c0.711,0.166,1.5.14,2.265,0.321a10.781,10.781,0,0,0,1.857.276V10.541h0.136v2.388a5.314,5.314,0,0,1,1.314.184c0.791,0.2,1.616.13,2.356,0.322a5.64,5.64,0,0,1,1.676.321c0.783,0.545.686,2.213,0.181,2.985a1.407,1.407,0,0,1-.68.6,1.539,1.539,0,0,1-.453.551c-1.054.709-2.725,0.723-4.122,1.1-2.577.7-5.451,0.938-8.109,1.7-1.014.29-2.072,0.357-3.035,0.643a2.7,2.7,0,0,0-1.45.505c-0.4.532-.1,1.67-0.272,2.434s-0.048,1.588-.227,2.388c-0.123.55-.046,1.185-0.181,1.791a10.181,10.181,0,0,0-.226,2.158c1.467,0.654,3,1.374,4.439,2.02a2.344,2.344,0,0,1,1.54,1.286,1.33,1.33,0,0,1-1,1.561,10.017,10.017,0,0,1-5.028.6l-0.408-1.01H20.34v0.046a3.9,3.9,0,0,0-.091.964c-0.134.606-.058,1.446-0.226,1.929H19.977V37.954c-0.263-.428-0.091-2.208-0.317-2.893a0.167,0.167,0,0,0-.045.092,2.08,2.08,0,0,1-.544.918,5.407,5.407,0,0,1-2.038.046l-1.314-.092c-0.962-.255-2.908-0.732-2.537-2.112a1.671,1.671,0,0,1,.951-0.964,28.467,28.467,0,0,1,3.533-1.7,7.118,7.118,0,0,0,1.495-.643V30.1a6.569,6.569,0,0,1-.181-1.653c-0.344-1.478-.145-3.195-0.5-4.684-0.206-.87.225-1.684-0.453-2.112-0.76-.481-2.408-0.494-3.4-0.781-2.971-.861-6.276-1.083-9.151-1.928-1.621-.477-3.555-0.358-4.394-1.607-0.352.05-.916-1.015-1.042-1.423L0,15.27C0,13.1,1.608,13.709,3.262,13.3,4,13.111,4.826,13.169,5.617,12.975c2.2-.542,4.659-0.452,6.84-1.01,0.915-.234,1.822-0.131,2.718-0.367a9.772,9.772,0,0,0,1-.184,3.876,3.876,0,0,0,.861-0.735c0.3-.546-0.1-1.106.815-1.1l0.045-.184a0.924,0.924,0,0,1-.272,0V9.3a3.829,3.829,0,0,0,.362-1.148H17.712a8.411,8.411,0,0,1,.634-1.974L18.437,5.4A12.348,12.348,0,0,0,18.8,4.112a12.6,12.6,0,0,1-3.216-.046,2.647,2.647,0,0,1-.815-0.138,13.58,13.58,0,0,1,4.213-.276c0.181-.815.76-0.94,0.906-1.653,0.145,0.093.081,0.092,0.226,0V2.413c0.688,0.2.615,1.035,1,1.24a2.182,2.182,0,0,1,.951-0.092,9.655,9.655,0,0,1,2.265.184,2.763,2.763,0,0,1,.906.184,22.373,22.373,0,0,1-4.032.23V4.25A5.942,5.942,0,0,1,21.563,5.4l0.045,0.643A16.007,16.007,0,0,1,22.288,8.153Z"/>
</svg>
