<svg xmlns="http://www.w3.org/2000/svg" width="40" height="40" viewBox="0 0 40 40">
  <defs>
    <style>
      .cls-1 {
        fill: #fff;
        fill-rule: evenodd;
      }
    </style>
  </defs>
  <path id="Color_Fill_1" data-name="Color Fill 1" class="cls-1" d="M19.88,2h0.24V3a2.737,2.737,0,0,1,.671.717,2.262,2.262,0,0,0,.192.478h0.575a2.674,2.674,0,0,1,1.006-.048,7.7,7.7,0,0,1,2.683.382c-1.305.03-2.716,0.447-4.072,0.191V4.773a0.433,0.433,0,0,1,0,.191h0.1A7.7,7.7,0,0,1,21.6,6.59c0.057,0.191.227,0.384,0.287,0.574l0.1,0.956a9.76,9.76,0,0,1,.192,1.96h0.479c0.344,2.229,1.868,1.726,3.88,2.2,0.864,0.2,1.81.166,2.731,0.383a44.278,44.278,0,0,0,4.647.669V11.036h0.1v2.295h0.1a4.2,4.2,0,0,0,1.054.143c0.889,0.21,1.942.221,2.826,0.43,0.715,0.169,1.271.031,1.629,0.526,1,1.38-.214,3.145-1.15,3.777-1.076.727-2.642,0.715-4.072,1.1-2.793.752-5.8,1.015-8.575,1.769-1.018.276-2.051,0.338-3.018,0.621-0.546.16-1.137,0.18-1.2,0.813a15.708,15.708,0,0,0-.144,2.1c-0.2.926-.072,1.942-0.287,2.916a16.865,16.865,0,0,0-.335,3.2c1.4,0.622,2.88,1.3,4.264,1.912a2.594,2.594,0,0,1,1.724,1.386,1.244,1.244,0,0,1-.91,1.434,10.453,10.453,0,0,1-5.078.669c-0.121-.231-0.287-0.529-0.383-0.765a3.28,3.28,0,0,0-.1-0.478,0.292,0.292,0,0,1-.1.1A14.089,14.089,0,0,1,20.024,38H19.976V37.952a19.187,19.187,0,0,1-.287-2.486c-0.04-.181.031-0.427,0-0.478a0.293,0.293,0,0,0-.1-0.1,1.244,1.244,0,0,1-.671,1.243,7.5,7.5,0,0,1-1.868.048,6.307,6.307,0,0,1-3.305-.908,1.118,1.118,0,0,1-.575-1.243,2.006,2.006,0,0,1,1.15-1.1,26.919,26.919,0,0,1,3.257-1.53,7.363,7.363,0,0,0,1.581-.669V30.207a10.5,10.5,0,0,1-.239-2.2c-0.132-.594-0.048-1.265-0.192-1.912a28.575,28.575,0,0,1-.335-3.777,3.784,3.784,0,0,0-.431-0.43,6.01,6.01,0,0,0-1.245-.287c-0.964-.261-2-0.347-3.018-0.622-3.215-.868-6.712-1.157-9.916-2.056-1.725-.484-2.678-0.641-3.449-2.1A2.554,2.554,0,0,1,.1,14.956c0.493-1.4,2.493-.976,4.024-1.339,0.786-.186,1.649-0.138,2.491-0.335,2.264-.528,4.686-0.489,6.85-1,1.989-.473,3.563.028,3.88-2.2H17.82a21.019,21.019,0,0,1,1.006-5.4H18.778c-0.653.43-3.149-.066-3.928-0.1v-0.1A9.94,9.94,0,0,0,16.767,4.2a10.6,10.6,0,0,1,2.252,0,2.156,2.156,0,0,1,.575-0.956L19.88,3V2Z"/>
</svg>
