<svg xmlns="http://www.w3.org/2000/svg" width="40" height="40" viewBox="0 0 40 40">
  <defs>
    <style>
      .cls-1 {
        fill: #fff;
        fill-rule: evenodd;
      }
    </style>
  </defs>
  <path id="Color_Fill_1" data-name="Color Fill 1" class="cls-1" d="M19.931,6.42H20.1A0.95,0.95,0,0,1,20.139,6V6.42h0.173c0.094,0.139.3,0.209,0.381,0.35a3.624,3.624,0,0,1,.243,1.611h0.243V8.556H20.936c0,1.36.033,2.824,0.035,4.237h2.218c0-.641.009-1.34,0.035-1.926a0.8,0.8,0,0,0,.347-0.315H23.154a5.85,5.85,0,0,0-1.317-.07v-0.07l1.768-.035a0.907,0.907,0,0,1,.347-0.455,0.118,0.118,0,0,1,.069.035c0.323,0.072.188,0.308,0.347,0.42h1.317a1.034,1.034,0,0,0,.451.035v0.07H25.685a5.758,5.758,0,0,1-1.282.07v0.07a0.459,0.459,0,0,1,.347.42,7.669,7.669,0,0,1,.035,1.751l2.808,0.385a7.483,7.483,0,0,1,.035-1.716c0.07-.189.242-0.167,0.312-0.35H27.7a6.4,6.4,0,0,0-1.456-.07l-0.035-.07h0.347a5.738,5.738,0,0,1,1.421-.035,0.519,0.519,0,0,1,.451-0.455,0.246,0.246,0,0,0,.139.07,1.1,1.1,0,0,1,.173.385c0.615,0,1.234.032,1.8,0.035v0.035H30.5a2.422,2.422,0,0,1-.589.035,6.46,6.46,0,0,1-1.144.07v0.035a2.225,2.225,0,0,1,.312.245,7.717,7.717,0,0,1,.069,2.031,7.846,7.846,0,0,1,1.664.245c0.67,0.156,1.348.131,1.976,0.28l0.971,0.105c1.092,0.263,2.337.265,3.432,0.525,0.653,0.155,1.328.12,1.941,0.28,0.3,0.078.63,0.033,0.659,0.385h0.139a3.426,3.426,0,0,1,.035,1.191,6.718,6.718,0,0,1-.589.385c-0.447.15-.963,0.028-1.456,0.14-1.133.256-2.438,0.131-3.57,0.385l-1.075.07c-0.777.176-1.44,0.125-2.184,0.28l-0.312-.035c-0.207.03-.527,0.06-0.728,0.105l-0.728.035c-0.666.148-1.459,0.057-2.149,0.21a32.253,32.253,0,0,1-6.239.245Q20.918,21.5,20.9,24.735c-0.063.3,0.038,0.746-.035,1.086a13.9,13.9,0,0,0-.1,2.381,7.412,7.412,0,0,1,1.629.14c0.579,0.134,1.2.016,1.733,0.14a11.849,11.849,0,0,1,1.421.1,5.986,5.986,0,0,1,.035,1.891H25.511a2.3,2.3,0,0,0-.069-0.665H25.407a1.029,1.029,0,0,1-.069.28c-0.18,0-.147.007-0.139,0.245-0.095.108-.051,0.183-0.243,0.21a5.647,5.647,0,0,1-1.248.175,10.25,10.25,0,0,1-2.045.28c-0.253,0-.588.134-0.9,0.14L20.693,30.9H20.659v0.245a0.382,0.382,0,0,1,.035.21h-0.1a3.022,3.022,0,0,1-.173.875,4.191,4.191,0,0,1-.035.77V32.23H20.347v0.035a0.627,0.627,0,0,1-.208.385,0.246,0.246,0,0,1-.243.035,3.81,3.81,0,0,1-.208-0.455H19.653V33H19.619a11.767,11.767,0,0,0-.173-1.646h-0.1l0.035-.42H19.341v0.035c-0.1.126-.042,0.172-0.277,0.175A3.936,3.936,0,0,0,18.059,31c-0.621-.148-1.357-0.172-1.976-0.315a8.513,8.513,0,0,1-1.144-.175,0.787,0.787,0,0,1-.1-0.42H14.7l-0.069-.21H14.593v0.035c-0.075.127-.021,0.381-0.1,0.49a5.605,5.605,0,0,1,0-1.856,5.6,5.6,0,0,0,1.421-.1l3.362-.245a8.191,8.191,0,0,0-.069-1.611c-0.063-.3.019-0.694-0.035-0.945-0.079-.373.035-0.861-0.035-1.191q-0.017-3.1-.035-6.2H16.256a7.354,7.354,0,0,1-1.594-.07c-0.251-.064-0.518-0.017-0.728-0.07-0.473-.121-0.986-0.029-1.421-0.14l-0.728-.035c-0.667-.165-1.483-0.076-2.149-0.245l-1.075-.035c-0.879-.217-1.967-0.119-2.877-0.35-0.362-.092-0.747-0.022-1.075-0.105l-0.693-.035c-0.779-.193-1.719-0.083-2.5-0.28H1.04a1.321,1.321,0,0,1-.9-0.455A1.6,1.6,0,0,1,.1,15.245H0.243v-0.14c0.931-.53,2.418-0.38,3.6-0.665,0.927-.223,1.985-0.233,2.912-0.455l0.728-.07c0.543-.13,1.153-0.106,1.733-0.245a8.45,8.45,0,0,1,1.7-.245,8.567,8.567,0,0,1,.035-2.066,0.459,0.459,0,0,0,.312-0.245H10.988a6.265,6.265,0,0,0-1.456-.07v-0.07c0.552,0,1.168-.034,1.768-0.035a0.49,0.49,0,0,1,.451-0.455l0.208,0.175,0.1,0.28h1.421a0.733,0.733,0,0,0,.347.035v0.035H13.8a11,11,0,0,1-1.7.105v0.07a0.977,0.977,0,0,1,.347.245v1.751l2.842-.385a8.476,8.476,0,0,1,.035-1.891c0.07-.183.242-0.161,0.312-0.35H15.217a5.706,5.706,0,0,0-1.317-.07v-0.07l1.768-.035a0.941,0.941,0,0,1,.347-0.455,0.118,0.118,0,0,1,.069.035c0.323,0.072.188,0.308,0.347,0.42h1.352a0.933,0.933,0,0,0,.416.035v0.07H17.747a5.611,5.611,0,0,1-1.282.07v0.07a0.593,0.593,0,0,1,.312.245,7.113,7.113,0,0,1,.069,1.926H19.03a5.93,5.93,0,0,0,.035-1.541A8.065,8.065,0,0,0,19.1,9.432H18.926a1.894,1.894,0,0,1-.035-0.525h0.035V9.292H19.1V8.556H18.891a0.555,0.555,0,0,1-.035-0.175c0.022-.03.046-0.11,0.069-0.14v0.14H19.1c-0.021-.785.09-1.926,0.8-1.961A0.948,0.948,0,0,1,19.931,6V6.42Zm-5.65,22.973a0.238,0.238,0,0,1,.035.14H14.281A0.273,0.273,0,0,1,14.281,29.393Zm11.438,0a0.136,0.136,0,0,1,.069.105H25.754v0.035H25.719v-0.14ZM14.454,30.444h0.069v0.035A0.119,0.119,0,0,1,14.454,30.444Z"/>
</svg>
