<svg xmlns="http://www.w3.org/2000/svg" width="40" height="40" viewBox="0 0 40 40">
  <defs>
    <style>
      .cls-1 {
        fill: #fff;
        fill-rule: evenodd;
      }
    </style>
  </defs>
  <path id="Color_Fill_1" data-name="Color Fill 1" class="cls-1" d="M22.305,10.884l-0.208.041v0.369a2.722,2.722,0,0,1,.249.9c0.706,0.241,1.511.185,2.285,0.369a22.537,22.537,0,0,0,3.2.533l0.125-.615,0.166-.123c0.054-.119-0.017-0.282.041-0.369,0,0.533.267,0.677,0.291,1.229L34.309,14.2V12.072h0.083v2.172a7.234,7.234,0,0,1,1.371.246c0.957,0.234,1.919.276,2.742,0.574,0.435,0.157,1.079.243,1.08,0.819a0.2,0.2,0,0,1,.125.041c-0.072.13,0.026,0.2,0.166,0.246A0.214,0.214,0,0,0,40,16.21c0,1.8-1.328,2.354-2.658,2.7l-0.955.123a16.761,16.761,0,0,1-1.994.369V18.791H34.309a0.116,0.116,0,0,0-.041-0.041,2.575,2.575,0,0,1-.041.738,5.368,5.368,0,0,0-1.163.2c-0.649.16-1.309,0.176-1.911,0.328a1.425,1.425,0,0,1-.748.041,5.546,5.546,0,0,1-1.371.287c-0.747.184-1.622,0.269-2.368,0.451-0.861.21-1.778,0.122-2.617,0.369a3.806,3.806,0,0,0-1.038.574,3.692,3.692,0,0,0-1.2,1.885v0.533c-0.131.593-.066,1.226-0.208,1.844a9.808,9.808,0,0,0-.249,2.745c1.217,0.82,2.678,1.409,3.946,2.171a7.986,7.986,0,0,1,1.828.983,0.828,0.828,0,0,1,.083.7,1.451,1.451,0,0,1-.914.778,9.159,9.159,0,0,1-2.2.656l-1.2.082a5.028,5.028,0,0,1-1.828,0A0.92,0.92,0,0,1,20.6,33.46a1.94,1.94,0,0,0,0-.492,0.118,0.118,0,0,1-.042.041c-0.214.654-.269,1.24-0.457,2.008-0.089.363,0.007,0.708-.083,0.983-0.036-.03-0.047-0.052-0.083-0.082a8.388,8.388,0,0,0-.374-2.418c-0.091-.183-0.091-0.416-0.166-0.574H19.315v0.041a0.978,0.978,0,0,1-.249,1.106,5.226,5.226,0,0,1-2.077.041,7.928,7.928,0,0,1-3.24-.738,1.908,1.908,0,0,1-.914-0.615,1.234,1.234,0,0,1,0-.819c1.305-.792,2.744-1.541,4.112-2.254a5.666,5.666,0,0,0,1.662-.942,1.557,1.557,0,0,0,.042-0.983c-0.19-.8-0.127-1.789-0.332-2.581l-0.125-1.6-0.374-.9a4.1,4.1,0,0,0-1.7-1.475l-5.358-.86c-0.877-.224-1.684-0.254-2.575-0.492a8.743,8.743,0,0,0-1-.123,0.489,0.489,0,0,1-.166.164c-0.277-.173-0.825-0.051-1.08-0.246a2.155,2.155,0,0,1-.208-0.9l-0.125.041v0.615a12.345,12.345,0,0,1-1.994-.369l-0.955-.123C1.389,18.548-.021,18.006,0,16.251a0.783,0.783,0,0,0,.374-0.287,0.252,0.252,0,0,1-.083-0.082H0.415V15.6a10.78,10.78,0,0,1,1.329-.656C3.172,14.476,4.885,14.5,6.4,14.12c0.982-.249,2.043-0.273,3.074-0.533a13.1,13.1,0,0,1,2.077-.369,4.113,4.113,0,0,1,.374-1.229A8.445,8.445,0,0,0,12.17,13.1l0.415-.041,0.042,0.2a0.7,0.7,0,0,0,.332.082,0.687,0.687,0,0,0,.208-0.2,0.351,0.351,0,0,0,.042-0.2l4.4-.7a0.424,0.424,0,0,0,.083-0.246,2.151,2.151,0,0,0,.208-1.065,0.217,0.217,0,0,1-.208-0.123c0.406-.591.039-1.743,0.291-2.458,0.065-.185.3-0.342,0.374-0.533l0.083-.656c0.07-.258.182-0.57,0.249-0.819H18.484c-0.463.3-2.382,0-2.866-.123a2.235,2.235,0,0,1-.789-0.164h0.083a3.588,3.588,0,0,1,1-.123A15.064,15.064,0,0,1,18.9,5.844a4.318,4.318,0,0,1,1.08-1.8V4h0.042V4.041a4.038,4.038,0,0,1,.914,1.27l0.208,0.533H21.89A2.5,2.5,0,0,1,22.8,5.8a11.671,11.671,0,0,1,2.326.2V6.049l-2.658.41a3.4,3.4,0,0,1-1.163-.123V6.376a4.927,4.927,0,0,1,.374,1.6c0.076,0.281.291,0.562,0.374,0.819l0.041,1.27A7.619,7.619,0,0,1,22.305,10.884Z"/>
</svg>
