<svg xmlns="http://www.w3.org/2000/svg" width="40" height="40" viewBox="0 0 40 40">
  <defs>
    <style>
      .cls-1 {
        fill: #fff;
        fill-rule: evenodd;
      }
    </style>
  </defs>
  <path id="Color_Fill_1" data-name="Color Fill 1" class="cls-1" d="M21.3,10.059h0.33V9.975c0.064-.108.016-0.395,0.083-0.5a4.233,4.233,0,0,1,0,1.044,0.151,0.151,0,0,1-.041-0.083,0.452,0.452,0,0,1-.082-0.292H21.342a0.6,0.6,0,0,0-.041.167,3.957,3.957,0,0,1,.041,1.378q0.021,1.775.041,3.55L23.86,15.28c-0.005-.55.014-1.472,0.413-1.629a2.994,2.994,0,0,1,.991-0.167L25.3,13.4a0.749,0.749,0,0,0-.248-0.042,2.942,2.942,0,0,0-.991,0l-1.61-.167-0.041-.083h0.5a1.691,1.691,0,0,1,.66-0.042h1.651V13.025h0.041a0.61,0.61,0,0,1,.124-0.543,0.211,0.211,0,0,1,.33.042c0.083,0.114.044,0.373,0.124,0.5a9.076,9.076,0,0,0,2.105.042c0.2,0.118.609,0,.784,0.125a4.37,4.37,0,0,0-.949.125c-0.3.067-.744,0-0.991,0.042a6.058,6.058,0,0,0-1.032.042v0.042H25.8a3.278,3.278,0,0,0,.908.125c0.5,0.181.43,1.131,0.5,1.754l7.678,0.084c0.876,0,1.831.025,2.642,0.042a12.26,12.26,0,0,1,2.105.083A1.442,1.442,0,0,1,40,16.617H39.67a1.55,1.55,0,0,0,.082.292,0.6,0.6,0,0,0-.082.543c-0.285.212-.47,0.556-0.784,0.752a12.347,12.347,0,0,1-2.518.668c-1.991.613-4.172,0.938-6.151,1.587-0.683.224-1.41,0.343-2.064,0.543a1.847,1.847,0,0,0-.867.251v0.376c0.063,0.114-.045.062-0.083,0.167a1.626,1.626,0,0,1-.165.794H26.873a6.949,6.949,0,0,1,0-1.253H26.791a0.35,0.35,0,0,0-.083.125,5.552,5.552,0,0,0-.248,1.086c-0.2.61-.408,1.263-0.619,1.838a1.8,1.8,0,0,1-.372.919,2.572,2.572,0,0,0-.248-0.752c-0.161-.439-0.277-0.918-0.413-1.337a3.127,3.127,0,0,0-.5-1.295,16.048,16.048,0,0,0-1.61.418c-0.365.111-.716,0.118-1.032,0.251a8.335,8.335,0,0,0-.33,3.342,51.87,51.87,0,0,1-.165,5.764,6.23,6.23,0,0,1,1.28.292c0.818,0.232,1.657.323,2.436,0.543a6.2,6.2,0,0,1,1.692.418,1.122,1.122,0,0,1,.372,1.253c-0.544,1.111-2.73,1.15-4.128,1.462-0.689.154-1.952-.028-2.312,0.418a1.713,1.713,0,0,1-.5.877V37H19.979V36.958a1.465,1.465,0,0,1-.5-0.919,12.065,12.065,0,0,0-2.312-.376,23.547,23.547,0,0,1-2.766-.585,1.831,1.831,0,0,1-1.4-1,1.092,1.092,0,0,1,.413-1.128,6.164,6.164,0,0,1,1.692-.418c0.779-.218,1.617-0.314,2.436-0.543a6.85,6.85,0,0,1,1.28-.292c-0.215-2.083-.165-4.315-0.165-6.558,0-.9.132-2.148-0.372-2.548a12.136,12.136,0,0,0-2.023-.543,1.4,1.4,0,0,0-.578-0.084,1,1,0,0,0-.371.794c-0.2.624-.4,1.322-0.619,1.921a1.2,1.2,0,0,1-.248.627,6.292,6.292,0,0,0-.5-1.378,15.583,15.583,0,0,1-.66-2.548l-0.165-.042V21.5a1.905,1.905,0,0,1,0,1.086H12.962a0.8,0.8,0,0,0-.206-0.418,7.6,7.6,0,0,1-.041-0.919C9.728,20.2,6.367,19.734,3.3,18.789c-1.216-.375-3-0.3-2.972-1.921-0.108-.016-0.054.031-0.083-0.084,0.1-.061.064-0.018,0.083-0.167H0c-0.009-1.853,1.288-.869,2.683-1.17a15.682,15.682,0,0,1,2.931-.042H6.44a12.907,12.907,0,0,1,2.394-.042l3.963-.042a12.192,12.192,0,0,1,.206-1.5l0.289-.251a7.324,7.324,0,0,1,.908-0.084l0.041-.084a0.749,0.749,0,0,0-.248-0.042,2.941,2.941,0,0,0-.991,0l-1.61-.167-0.041-.083h0.5a1.691,1.691,0,0,1,.66-0.042h1.651V13.025H14.2a1.259,1.259,0,0,1,.083-0.543,0.367,0.367,0,0,1,.371,0,3.914,3.914,0,0,0,.124.543,9.077,9.077,0,0,0,2.105.042c0.2,0.118.609,0,.784,0.125a4.407,4.407,0,0,0-.949.125c-0.288.065-.712,0-0.949,0.042A7.109,7.109,0,0,0,14.7,13.4v0.042h0.041a3.691,3.691,0,0,0,1.073.209,3.935,3.935,0,0,1,.33,1.629l2.477-.042q0.021-1.295.041-2.59a23.539,23.539,0,0,1,.041-2.464,0.876,0.876,0,0,0-.289-0.042l-0.082.376a0.151,0.151,0,0,1-.041-0.083,1.725,1.725,0,0,1,.041-0.961,2.909,2.909,0,0,0,.041.585H18.7a16.35,16.35,0,0,1,.413-4.428,3.8,3.8,0,0,1,.413-0.961c0.067-.094.383-0.236,0.413-0.292v-0.5A2.876,2.876,0,0,1,20.021,3a2.636,2.636,0,0,0,.083.627,3.812,3.812,0,0,1-.083.752,1.392,1.392,0,0,1,.784,1.128A14.619,14.619,0,0,1,21.3,10.059Z"/>
</svg>
