<svg xmlns="http://www.w3.org/2000/svg" width="40" height="40" viewBox="0 0 40 40">
  <defs>
    <style>
      .cls-1 {
        fill: #fff;
        fill-rule: evenodd;
      }
    </style>
  </defs>
  <path id="Color_Fill_1" data-name="Color Fill 1" class="cls-1" d="M25.271,11.4h0.147c0.009,0.755-.209,1.181-0.22,1.862a0.91,0.91,0,0,0,.294.037,0.481,0.481,0,0,0,.257.037,1.011,1.011,0,0,1,.184-0.447,1.331,1.331,0,0,1,.074-0.633v0.559h0.22V12.255h0.11c0,0.555.139,0.75,0.147,1.229a15.4,15.4,0,0,1,2.13.372l0.7,0.074c0.739,0.188,1.587.258,2.314,0.447l0.845,0.112c1.216,0.318,2.575.431,3.783,0.745,0.791,0.205,1.6.252,2.351,0.447a3.012,3.012,0,0,1,1.065.261,0.87,0.87,0,0,1,.073.261c0.138,0.005.129-.018,0.184,0.074a1.744,1.744,0,0,1,.037.745,2.138,2.138,0,0,1-.7,1.34c-0.523.345-2.073,0.164-2.828,0.335-0.629.143-1.389,0.072-2.02,0.223h-0.4c-0.511.116-1.1,0.023-1.653,0.149a13.812,13.812,0,0,1-2.351.224,0.279,0.279,0,0,1-.147.186c-0.035-.126-0.014-0.116-0.147-0.149a10.724,10.724,0,0,1-1.726.261,0.8,0.8,0,0,1-.073.186H27.879a0.245,0.245,0,0,0-.073-0.186,10.293,10.293,0,0,1-1.873.261l-0.037.186H25.822c-0.039-.146-0.042-0.143-0.22-0.149a9.913,9.913,0,0,1-1.91.261v0.075a0.191,0.191,0,0,0-.037.112h-0.11V20.186l-1.763.223v0.149H21.745V20.6a1.715,1.715,0,0,0-.11,1.08,2.065,2.065,0,0,0-.037.745l-0.073,1.527c-0.13.607-.007,1.293-0.147,1.936-0.106.49-.116,1.082-0.22,1.564v0.447a7.66,7.66,0,0,0-.147,1.489L24.9,29.42a4.958,4.958,0,0,0,1.69-.075,20.289,20.289,0,0,1,.11,2.309v0.819a4.268,4.268,0,0,0-.11.782H26.557V33.218a4.373,4.373,0,0,1-.147-1.527H26.373v0.037c-0.144.134-.34,1.079-0.441,1.154h-5.4a1.29,1.29,0,0,1-.514,1.08V34H19.982V33.963c-0.425-.16-0.317-0.685-0.551-1.043a4.8,4.8,0,0,0-1.469-.037H14.068l-0.441-1.192H13.59v0.335c-0.171.293,0.024,0.991-.184,1.266a17.844,17.844,0,0,1,0-3.947h0.037a4.468,4.468,0,0,0,1.432.075l4.114-.037c0-.592-0.168-1.184-0.184-1.713a7.693,7.693,0,0,0-.147-1.34q-0.055-.856-0.11-1.713c-0.07-.322.007-0.712-0.073-1.08a11.971,11.971,0,0,1-.11-2.308c-0.1,0-.059.049-0.11-0.074a0.746,0.746,0,0,0,.11-0.633H18.329a0.142,0.142,0,0,1-.11.074c-0.022-.186-0.051-0.19-0.257-0.186l-1.506-.223a0.475,0.475,0,0,1-.037.149,0.125,0.125,0,0,1-.073-0.037,0.254,0.254,0,0,1-.037-0.149l-2.094-.261-0.073.186A0.135,0.135,0,0,1,14.1,20a0.253,0.253,0,0,1-.037-0.149L12.746,19.7a1.642,1.642,0,0,0-.588-0.074,0.729,0.729,0,0,0-.073.149,0.134,0.134,0,0,1-.037-0.074,0.192,0.192,0,0,1-.037-0.112l-1.836-.261-0.073.186c-0.135-.16-0.08-0.231-0.4-0.223A14,14,0,0,0,7.6,19.106c-0.514-.115-1.093-0.024-1.653-0.149l-4.371-.447A3.131,3.131,0,0,1,.771,18.4a1.97,1.97,0,0,1-.735-1.452,1.208,1.208,0,0,1,.037-0.707,0.8,0.8,0,0,0,.22-0.112c0.087-.15-0.055-0.146.11-0.223A3.139,3.139,0,0,1,1.4,15.681C2.206,15.468,3.078,15.42,3.93,15.2,4.69,15,5.512,14.96,6.318,14.75c2.3-.6,4.783-0.774,7.163-1.266a1.066,1.066,0,0,1,.184-0.559,1.5,1.5,0,0,1,.073-0.67v0.559h0.257V12.255h0.073a1.749,1.749,0,0,0,.22,1.117,1.8,1.8,0,0,1,.514-0.112V13a3.872,3.872,0,0,1-.22-1.6h0.11a3.72,3.72,0,0,1,.331-1.75h0.771V9.612h0.037a0.286,0.286,0,0,0-.294-0.149,1.318,1.318,0,0,0-.514.037,4.716,4.716,0,0,1-1.359-.149,19.267,19.267,0,0,1,2.02-.074,3.078,3.078,0,0,1,.184-0.633,0.247,0.247,0,0,1,.33,0c0.1,0.128.016,0.408,0.11,0.559a4.966,4.966,0,0,0,1.433.074c0.166,0.1.506,0.008,0.661,0.112-0.68.078-1.386,0.058-2.057,0.074a1.717,1.717,0,0,0-.11.186h0.808a3.725,3.725,0,0,1,.294,1.973,3.257,3.257,0,0,0-.037,1.154,1.491,1.491,0,0,0,.441.037,3.061,3.061,0,0,1,.845-0.149V12.181a11.8,11.8,0,0,0,.11-1.638c0.245-1.114.29-2.238,0.588-3.239a2.083,2.083,0,0,1,.551-1.229A0.379,0.379,0,0,1,20.055,6c0.658,0.668.574,1.168,0.845,2.2a18.647,18.647,0,0,1,.514,4.468h0.073a3.38,3.38,0,0,0,1.139.149,0.67,0.67,0,0,1,.11-0.149,11.713,11.713,0,0,1,.11-2.9,1.781,1.781,0,0,1,.882-0.112V9.612h0.037a0.286,0.286,0,0,0-.294-0.149,1.318,1.318,0,0,0-.514.037A4.716,4.716,0,0,1,21.6,9.351a19.267,19.267,0,0,1,2.02-.074A3.072,3.072,0,0,1,23.8,8.644a0.247,0.247,0,0,1,.331,0c0.1,0.128.016,0.408,0.11,0.559a4.966,4.966,0,0,0,1.433.074c0.166,0.1.506,0.008,0.661,0.112-0.68.078-1.386,0.058-2.057,0.074a1.7,1.7,0,0,0-.11.186h0.808A3.762,3.762,0,0,1,25.271,11.4Z"/>
</svg>
