<svg xmlns="http://www.w3.org/2000/svg" width="40" height="40" viewBox="0 0 40 40">
  <defs>
    <style>
      .cls-1 {
        fill: #fff;
        fill-rule: evenodd;
      }
    </style>
  </defs>
  <path id="Color_Fill_1" data-name="Color Fill 1" class="cls-1" d="M20.465,7.132V7h0.067a2.84,2.84,0,0,0,.266.593h0.1V7.659a3.235,3.235,0,0,1,.3.989,20.849,20.849,0,0,1,.2,4.976h1.861a9.579,9.579,0,0,1,.033-2.175,0.549,0.549,0,0,0,.233-0.132,0.938,0.938,0,0,0,.066-0.165H23.223c-0.222-.135-0.672.009-0.9-0.132,0.442-.01.865-0.082,1.3-0.066V10.889a0.284,0.284,0,0,0,.033-0.165H23.621a3.8,3.8,0,0,1-1.3-.132h0.066a3.349,3.349,0,0,1,1.362-.066,0.859,0.859,0,0,1,.232-0.4,0.114,0.114,0,0,1,.067.033c0.2,0.079.13,0.3,0.332,0.362a2.992,2.992,0,0,1,1.329.1,3.372,3.372,0,0,1-1.362.066v0.066a0.341,0.341,0,0,1,.066.2,3.648,3.648,0,0,1,1.3.1c-0.452,0-.776.095-1.263,0.1v0.033a0.243,0.243,0,0,1,.067.2h0.166a0.352,0.352,0,0,1,.1.231,2.156,2.156,0,0,1,.066.626c-0.007.027-.072-0.027-0.066,0.066a4.3,4.3,0,0,1,0,1.318h0.066a2.68,2.68,0,0,0,.7.1,10.208,10.208,0,0,0,2.093.3,6.841,6.841,0,0,1,.066-1.977,0.72,0.72,0,0,1,.233-0.033,1,1,0,0,1,.033-0.231H27.608a0.12,0.12,0,0,1-.067.033l-0.033.1a0.78,0.78,0,0,0,.033.461,0.12,0.12,0,0,1-.066.033,1.219,1.219,0,0,1-.266-0.692,1.192,1.192,0,0,1-.5-0.066,0.582,0.582,0,0,0,.465-0.1,1.041,1.041,0,0,0,.1-0.231H27.11c-0.1-.062-0.3-0.034-0.4-0.1,0.316-.019.58-0.1,0.93-0.1a3.329,3.329,0,0,0,.5.033c0.124-.168.071-0.35,0.365-0.363a0.9,0.9,0,0,1,.166.363,3.343,3.343,0,0,1,1.429.1l-0.5.066,0.067,0.3a1.4,1.4,0,0,1,.432.066l-0.432.033a0.632,0.632,0,0,1-.067.165,1.293,1.293,0,0,1-.033.494H29.535V12.305a0.329,0.329,0,0,0,.033-0.33c-0.075.013-.036,0.03-0.1,0,0.045-.079.047-0.082-0.033-0.132a1,1,0,0,0-.565-0.066v0.033a0.354,0.354,0,0,1,.033.2h0.2l0.033,0.1a0.863,0.863,0,0,1,.067.494,5.9,5.9,0,0,1-.033,1.648h0.067a2.741,2.741,0,0,0,.7.1c0.513,0.121,1.079.1,1.628,0.231,0.817,0.192,1.706.162,2.558,0.363,0.438,0.1.922,0.087,1.4,0.2a10.756,10.756,0,0,0,1.528.231v0.165a1.138,1.138,0,0,1,.266.033,0.274,0.274,0,0,1,.033-0.165,2.757,2.757,0,0,0,.731.1c0.731,0.166,1.527.1,1.827,0.692a1.125,1.125,0,0,1-.166,1.088c-0.5.676-2.167,0.376-3.156,0.593-0.654.143-1.437,0.086-2.093,0.231l-0.7.033c-0.648.142-1.423,0.051-2.093,0.2-0.55.121-1.171,0.035-1.761,0.165l-5.449.527a6.554,6.554,0,0,0-.4,1.021l-0.1.033V20.049a2.866,2.866,0,0,1-.232-0.791,0.981,0.981,0,0,0-.266-0.264H21.4c0.005,0.766,0,1.393,0,2.109a6.144,6.144,0,0,1-.033,1.12c-0.047.215,0,.518-0.033,0.692-0.079.36,0,.745-0.066,1.055V24.5c-0.1.435-.039,0.989-0.133,1.417v0.461c-0.132.6-.012,1.521-0.2,2.076l4.684,0.4a0.453,0.453,0,0,1,.1-0.231h0.033V28.65c0.283,0.241.16,1.886,0.067,2.307a2.6,2.6,0,0,1-.1.824,0.368,0.368,0,0,0-.1-0.231c-0.082-.2,0-0.559-0.066-0.758H25.515v0.033a0.385,0.385,0,0,0-.133.363,0.589,0.589,0,0,0-.1.3,10.44,10.44,0,0,0-2.027.2c-0.484.106-.983,0.035-1.429,0.132a3.651,3.651,0,0,0-1.163.132c-0.183.316,0.06,0.781-.3,0.923a0.728,0.728,0,0,1-.8,0l-0.166-.3-0.067-.659-4.618-.428a5.25,5.25,0,0,0-.266-0.824H14.419v0.033c-0.182.3,0.025,0.809-.166,1.087a0.342,0.342,0,0,0-.1-0.231c-0.059-.122.017-0.5-0.033-0.725a5.063,5.063,0,0,1,.133-2.208h0.033V28.65a0.222,0.222,0,0,1,.1.2l4.651-.4V28.024A3.182,3.182,0,0,1,18.97,27.2c-0.116-.53-0.008-1.141-0.133-1.714-0.1-.44-0.037-1.008-0.133-1.45V23.51c-0.084-.388.027-0.853-0.066-1.285A6.171,6.171,0,0,1,18.6,21.1c0-.716,0-1.343,0-2.109h-1.5a1.589,1.589,0,0,0-.6.033,1.749,1.749,0,0,0-.5,1.055H15.947l-0.033-.066a3.186,3.186,0,0,1-.2-0.725,1.01,1.01,0,0,0-.266-0.3,8.339,8.339,0,0,1-1.794-.165c-0.482-.105-0.988-0.035-1.429-0.132L11.5,18.665c-0.666-.147-1.462-0.086-2.126-0.231l-1.063-.066c-1.335-.295-2.853-0.137-4.186-0.428-1.136-.248-3.439.068-3.953-0.725l-0.133-.4C-0.138,15.3,1.662,15.738,2.691,15.4c0,0.124-.016.116,0.066,0.165a0.362,0.362,0,0,1,.2-0.033V15.37a7.644,7.644,0,0,0,1.3-.2c0.473-.111.958-0.095,1.4-0.2,0.918-.216,1.9-0.187,2.791-0.4,0.549-.129,1.114-0.11,1.628-0.231a2.507,2.507,0,0,0,.7-0.1,2.183,2.183,0,0,0,.033-0.824,4.016,4.016,0,0,1,.066-1.384,0.72,0.72,0,0,1,.232-0.033,0.659,0.659,0,0,1,.033-0.231h-0.4c-0.217-.13-0.649,0-0.864-0.132l1.329-.1,0.033-.165h-0.5c-0.224-.135-0.651-0.021-0.864-0.165,0.469-.031.912-0.078,1.429-0.066a1.178,1.178,0,0,1,.266-0.4,0.464,0.464,0,0,1,.266.4,3.343,3.343,0,0,1,1.429.1,2.828,2.828,0,0,1-1.362.066V11.35a0.49,0.49,0,0,0,.1.231h0.3a3.258,3.258,0,0,1,.963.1c-0.424.008-.754,0.1-1.229,0.1v0.066a0.284,0.284,0,0,1,.033.165h0.2l0.033,0.1a1.218,1.218,0,0,1,.066.692,11.052,11.052,0,0,1,0,1.252h0.033l2.824-.428V13.558a2.534,2.534,0,0,1,0-.758,4.978,4.978,0,0,1,0-1.318,0.371,0.371,0,0,1,.266-0.1,0.475,0.475,0,0,1,.066-0.231H15.183c-0.225-.135-0.671.01-0.9-0.132,0.447-.01.856-0.075,1.3-0.066l0.033-.231H15.581a3.672,3.672,0,0,1-1.3-.132h0.066a3.348,3.348,0,0,1,1.362-.066,0.7,0.7,0,0,1,.232-0.4,0.114,0.114,0,0,1,.067.033,2.668,2.668,0,0,0,.332.362,3.05,3.05,0,0,1,1.329.1,3.372,3.372,0,0,1-1.362.066v0.066a0.561,0.561,0,0,1,.066.2h0.1a4.315,4.315,0,0,1,1.2.1c-0.452,0-.776.095-1.262,0.1v0.033a0.567,0.567,0,0,1,.066.2c0.167,0,.188.008,0.233,0.132a1.185,1.185,0,0,1,.033.626,12.325,12.325,0,0,1,0,1.483H18.6a4.649,4.649,0,0,0-.067-1.45,0.17,0.17,0,0,0-.1-0.033,0.434,0.434,0,0,1-.266.1,1.821,1.821,0,0,1-.066-0.231,0.633,0.633,0,0,0,.432-0.231A6,6,0,0,0,18.6,10.1a8.7,8.7,0,0,1,.5-2.5h0.1A2.282,2.282,0,0,1,19.535,7c0.014,0.118-.016.083,0.066,0.132A4.162,4.162,0,0,1,20.465,7.132Z"/>
</svg>
