<svg xmlns="http://www.w3.org/2000/svg" width="40" height="40" viewBox="0 0 40 40">
  <defs>
    <style>
      .cls-1 {
        fill: #fff;
        fill-rule: evenodd;
      }
    </style>
  </defs>
  <path id="Color_Fill_1" data-name="Color Fill 1" class="cls-1" d="M20.139,6.313h0.174V6.522h0.139v0.1a13.7,13.7,0,0,1,3.438.1V6.765H23.854a2.807,2.807,0,0,1-.764.07,13.227,13.227,0,0,1-2.639,0,0.5,0.5,0,0,1-.035.174h0.868a0.407,0.407,0,0,0,.174.07,0.564,0.564,0,0,1,.139.313,2.072,2.072,0,0,1,.035.73c0.017,0.49.049,1.07,0.035,1.53H21.7a0.74,0.74,0,0,1,.347-0.035,2.141,2.141,0,0,1-.035.661,3.3,3.3,0,0,0-.278.591c-0.011.067,0.034,0.2,0.035,0.313a8.643,8.643,0,0,0,.035,1.356h0.417a4.079,4.079,0,0,0,1.007.07c0.486,0.108,1.11.024,1.6,0.139h0.521a3.119,3.119,0,0,1,.521.244,1.083,1.083,0,0,0,.521,0,4.234,4.234,0,0,1,.9.1,5.746,5.746,0,0,1,.625,0,8.538,8.538,0,0,0,1.493.069,3.392,3.392,0,0,1,.833.1,1.11,1.11,0,0,0,.347-0.035,4.906,4.906,0,0,1,.729.1A1.391,1.391,0,0,0,31.6,13.3c0.414-.009.718,0.093,1.181,0.1,0-.773.047-1.623,0-2.3h0.069V11.6a7.94,7.94,0,0,1,.035,1.809h0.069a14.524,14.524,0,0,0,1.667.1c1.355,0.29,3.245-.1,4.583.591a3.139,3.139,0,0,1,.694.974c0.387,1.051-.567,2.214-1.076,2.574a9.6,9.6,0,0,1-2.535.869c-1.279.421-2.681,0.689-3.958,1.113-0.448.149-.905,0.181-1.319,0.348v0.1a1.233,1.233,0,0,0-.417.1c-0.029-.113.017-0.053-0.069-0.1a1.794,1.794,0,0,1-.868.209,7.43,7.43,0,0,1-.937.278c-1.177.383-2.471,0.65-3.646,1.044a7.9,7.9,0,0,0-2.5.939c-0.889.659-1.137,1.966-1.458,3.2l-0.035.591c-0.118.523-.109,1.155-0.208,1.67a14.449,14.449,0,0,1,1.875.8c1.046,0.457,2.107.841,3.125,1.287,0.545,0.239,1.4.592,1.181,1.5A1.582,1.582,0,0,1,25.9,32.852l-1.285.139-0.764.035c-0.35.079-.756,0.016-1.146,0.1a7.7,7.7,0,0,1-1.632.174,10.04,10.04,0,0,0-.729-1.461H20.278v0.035a1.081,1.081,0,0,1-.035.591A12.67,12.67,0,0,0,20.035,34H19.965a0.12,0.12,0,0,0-.035-0.07c0.2-.583-0.222-1.471-0.243-2.087H19.653v0.035c-0.221.3-.368,0.7-0.556,1.009a4.141,4.141,0,0,1-.174.417H18.576a5.124,5.124,0,0,0-1.285-.139c-1.5-.356-3.478.159-4.132-1.078a1.332,1.332,0,0,1-.208-0.974c0.209-.715.881-0.872,1.6-1.183,0.986-.428,2.032-0.863,3.021-1.287a5.442,5.442,0,0,0,1.563-.7,10.858,10.858,0,0,1-.208-1.913,8.792,8.792,0,0,0-.764-2.609c-0.873-1.417-1.929-1.371-3.611-1.913-0.942-.3-1.94-0.485-2.917-0.8a22.525,22.525,0,0,0-2.222-.626,0.168,0.168,0,0,1-.035.1,0.764,0.764,0,0,0-.382-0.1,0.168,0.168,0,0,0-.035-0.1,13.464,13.464,0,0,0-1.736-.452c-1.173-.5-2.657-0.7-3.889-1.113a9.189,9.189,0,0,1-1.944-.626,3.658,3.658,0,0,1-.833-0.73l0.035-.1a1.879,1.879,0,0,1-.174-0.1,2.259,2.259,0,0,1-.347-1.635,2.394,2.394,0,0,1,.347-0.73A2.084,2.084,0,0,0,.8,14.07a4.455,4.455,0,0,0,1.146-.313,12.214,12.214,0,0,1,1.354-.1,1.056,1.056,0,0,1,.486,0,5.7,5.7,0,0,1,.972-0.1c0.295,0.059.705-.128,1.007-0.069a7.441,7.441,0,0,0,1.285-.035,4.513,4.513,0,0,1,.729-0.1,9.032,9.032,0,0,0,1.632-.1,1.379,1.379,0,0,0,.347.035A2.53,2.53,0,0,1,10.1,13.2a5.935,5.935,0,0,0,1.146-.07,0.423,0.423,0,0,0,.174.035,2.64,2.64,0,0,1,.382-0.069,3.5,3.5,0,0,0,.625-0.035,14.466,14.466,0,0,0,1.771-.1c0.069-.2.1-0.223,0.382-0.209a3.25,3.25,0,0,0,1.007-.035l2.6-.174V12.47a8.6,8.6,0,0,0,.035-1.53A29.883,29.883,0,0,0,18.4,7.252a0.626,0.626,0,0,1,.208-0.174,2.075,2.075,0,0,1,.938-0.07V6.835a11.95,11.95,0,0,1-2.465,0,2.828,2.828,0,0,1-.937-0.1A0.1,0.1,0,0,1,16.111,6.7l0.972-.1a4.128,4.128,0,0,1,1.354.035,4.663,4.663,0,0,0,1.111,0v-0.1h0.139V6.313h0.174A0.954,0.954,0,0,0,19.826,6h0.347V6.035A0.552,0.552,0,0,0,20.139,6.313Z"/>
</svg>
